<?xml version="1.0" encoding="UTF-8" standalone="no"?>
<svg xmlns="http://www.w3.org/2000/svg" xmlns:xlink="http://www.w3.org/1999/xlink" width="32" height="32" version="1.0">
  <defs>
    <linearGradient id="k">
      <stop offset="0"/>
      <stop offset="1" stop-opacity="0"/>
    </linearGradient>
    <linearGradient id="b">
      <stop offset="0" stop-color="#fff"/>
      <stop offset="1" stop-color="#fff" stop-opacity="0"/>
    </linearGradient>
    <linearGradient id="d">
      <stop offset="0" stop-color="#729fcf"/>
      <stop offset="1" stop-color="#3465a4"/>
    </linearGradient>
    <linearGradient id="e">
      <stop offset="0" stop-color="#204a87"/>
      <stop offset="1" stop-color="#3465a4"/>
    </linearGradient>
    <linearGradient id="f">
      <stop offset="0" stop-color="#575955"/>
      <stop offset="1" stop-color="#7c7e79"/>
    </linearGradient>
    <linearGradient id="j">
      <stop offset="0" stop-color="#babdb6"/>
      <stop offset="1" stop-color="#f1f5ec"/>
    </linearGradient>
    <linearGradient id="c">
      <stop offset="0"/>
      <stop offset="1" stop-opacity="0"/>
    </linearGradient>
    <linearGradient id="a">
      <stop offset="0" stop-color="#eff3f4"/>
      <stop offset="1" stop-color="#939596"/>
    </linearGradient>
    <linearGradient xlink:href="#a" id="y" x1="44.757328" x2="44.864033" y1="11.071873" y2="15.094694" gradientTransform="matrix(.5632 .02255 -.01494 .60658 5.07098 -.7967673)" gradientUnits="userSpaceOnUse"/>
    <linearGradient xlink:href="#b" id="x" x1="19.977491" x2="19.857769" y1="38.962704" y2="23.600779" gradientTransform="matrix(.71734 0 0 .2978 -.572959 4.475491)" gradientUnits="userSpaceOnUse"/>
    <linearGradient xlink:href="#c" id="z" x1="5.8524427" x2="7.5291119" y1="25.978222" y2="69.460503" gradientTransform="matrix(2.0394 0 0 .27554 -1.9355275 -4.1580887)" gradientUnits="userSpaceOnUse"/>
    <linearGradient xlink:href="#a" id="u" x1="-4.6375198" x2="-4.523921" y1="104.38752" y2="110.61378" gradientTransform="matrix(.86456 0 0 .31477 17.361926 -24.299411)" gradientUnits="userSpaceOnUse"/>
    <linearGradient xlink:href="#d" id="s" x1="10.861447" x2="30.587307" y1="33.139202" y2="37.720802" gradientTransform="matrix(.70333 0 0 .3559 -.6071153 2.4664224)" gradientUnits="userSpaceOnUse"/>
    <linearGradient xlink:href="#e" id="t" x1="19.347122" x2="19.672924" y1="23.114082" y2="52.625473" gradientTransform="matrix(.70333 0 0 .3559 -.6071153 2.4664224)" gradientUnits="userSpaceOnUse"/>
    <linearGradient xlink:href="#f" id="v" x1="2.9325604" x2="19.737663" y1="21.169638" y2="21.169638" gradientTransform="matrix(1.38394 0 0 .35703 -2.0584916 -1.5582883)" gradientUnits="userSpaceOnUse"/>
    <linearGradient id="g">
      <stop offset="0" stop-color="#ececea"/>
      <stop offset="1" stop-color="#d6d9d2"/>
    </linearGradient>
    <linearGradient id="i">
      <stop offset="0" stop-color="#2e3436"/>
      <stop offset="1" stop-color="#2e3436" stop-opacity="0"/>
    </linearGradient>
    <linearGradient id="l">
      <stop offset="0" stop-color="#fce94f"/>
      <stop offset="1" stop-color="#fce94f" stop-opacity="0"/>
    </linearGradient>
    <linearGradient id="h">
      <stop offset="0" stop-color="#555753"/>
      <stop offset="1" stop-color="#fcaf3e"/>
    </linearGradient>
    <linearGradient xlink:href="#g" id="B" x1="12.8125" x2="12.8125" y1="3.9999673" y2="25.985226" gradientTransform="matrix(.75862 0 0 .68 .362069 -38.200002)" gradientUnits="userSpaceOnUse"/>
    <linearGradient xlink:href="#h" id="C" x1="-11.986486" x2="-11.986486" y1="13.122552" y2="29.726542" gradientTransform="matrix(.45679 0 0 .45833 17.975301 -38.725495)" gradientUnits="userSpaceOnUse"/>
    <linearGradient xlink:href="#i" id="E" x1="25.355263" x2="25.355263" y1="34.006802" y2="32.409008" gradientTransform="matrix(.44118 0 0 .5 1.911766 -40.45466)" gradientUnits="userSpaceOnUse"/>
    <linearGradient xlink:href="#j" id="w" x1="55.208271" x2="60.685902" y1="6.8897982" y2="6.8897982" gradientTransform="matrix(.36512 0 0 1.09536 2.8422695 -1.5468389)" gradientUnits="userSpaceOnUse"/>
    <linearGradient xlink:href="#f" id="m" x1="2.9325604" x2="19.737663" y1="21.169638" y2="21.169638" gradientTransform="matrix(1.19853 -.69197 .17852 .3092 -8.8835327 -31.920383)" gradientUnits="userSpaceOnUse"/>
    <radialGradient xlink:href="#k" id="r" cx="22.1875" cy="43.9375" r="21.8125" fx="22.1875" fy="43.9375" gradientTransform="matrix(1 0 0 .1576 0 37.013252)" gradientUnits="userSpaceOnUse"/>
    <radialGradient xlink:href="#k" id="p" cx="22.1875" cy="43.9375" r="21.8125" fx="22.1875" fy="43.9375" gradientTransform="matrix(1 0 0 .1576 0 37.013252)" gradientUnits="userSpaceOnUse"/>
    <radialGradient xlink:href="#k" id="q" cx="22.1875" cy="43.9375" r="21.8125" fx="22.1875" fy="43.9375" gradientTransform="matrix(1 0 0 .1576 0 37.013252)" gradientUnits="userSpaceOnUse"/>
    <radialGradient xlink:href="#k" id="o" cx="22.1875" cy="43.9375" r="21.8125" fx="22.1875" fy="43.9375" gradientTransform="matrix(1 0 0 .1576 0 37.013252)" gradientUnits="userSpaceOnUse"/>
    <radialGradient xlink:href="#k" id="n" cx="22.1875" cy="43.9375" r="21.8125" fx="22.1875" fy="43.9375" gradientTransform="matrix(1 0 0 .1576 0 37.013252)" gradientUnits="userSpaceOnUse"/>
    <radialGradient xlink:href="#l" id="D" cx="-6.0070167" cy="32.837029" r="9.90625" fx="-6.0070167" fy="32.837029" gradientTransform="matrix(.4987 0 0 .44848 12.828345 -37.694358)" gradientUnits="userSpaceOnUse"/>
    <clipPath id="A">
      <path fill="url(#m)" fill-rule="evenodd" stroke-width="0" d="M-2.7286947-34.251874c.2616283 1.484296 1.436894 5.045336 1.466587 5.540203.31036462 1.195876.6010082 2.41019.98497603 3.581029.63197246.455574 1.31067077-.483181 1.91955087-.675241C7.56347-29.234554 13.506818-32.634853 19.423003-36.071508c.800494-.631382-.613138-1.244835-.945873-1.763301-.756007-.711172-3.901275-4.090639-5.427924-5.52644l-15.7779007 9.109375z" display="block" style="marker:none"/>
    </clipPath>
  </defs>
  <path fill="url(#n)" d="M44 43.9375a21.8125 3.4375 0 1 1-43.625 0 21.8125 3.4375 0 1 1 43.625 0z" opacity=".1" transform="matrix(.68768 0 0 1.45455 .7421203 -36.90909)"/>
  <path fill="url(#o)" d="M44 43.9375a21.8125 3.4375 0 1 1-43.625 0 21.8125 3.4375 0 1 1 43.625 0z" opacity=".15" transform="matrix(.25418 0 0 .4039 14.904683 7.865081)"/>
  <path fill="url(#p)" d="M44 43.9375a21.8125 3.4375 0 1 1-43.625 0 21.8125 3.4375 0 1 1 43.625 0z" opacity=".15" transform="matrix(.25418 0 0 .4039 2.9046833 7.865081)"/>
  <path fill="url(#q)" d="M44 43.9375a21.8125 3.4375 0 1 1-43.625 0 21.8125 3.4375 0 1 1 43.625 0z" opacity=".3" transform="matrix(.27507 0 0 .58182 14.896848 4.4363636)"/>
  <path fill="#eeeeec" stroke="#2e3436" stroke-linecap="round" stroke-width="1.00000193" d="M10.49999973 25.00000003a2.49999994 2.49999994 0 1 1-4.99999968 0 2.49999994 2.49999994 0 1 1 4.99999968 0z"/>
  <path fill="url(#r)" d="M44 43.9375a21.8125 3.4375 0 1 1-43.625 0 21.8125 3.4375 0 1 1 43.625 0z" opacity=".3" transform="matrix(.27507 0 0 .58182 .8968481 4.4363636)"/>
  <path fill="#eeeeec" stroke="#2e3436" stroke-linecap="round" stroke-width="1.00000193" d="M22.12754633 25.00000023a2.49999994 2.49999994 0 1 1-4.99999968 0 2.49999994 2.49999994 0 1 1 4.99999968 0z"/>
  <path fill="#eeeeec" stroke="#2e3436" stroke-linecap="round" stroke-width=".99999982" d="M6.1882243 27.5c-.0011247-.041969 0-.08282 0-.125001 0-3.245112 3.3460671-5.874999 7.4842857-5.874999 4.138217 0 7.51471 2.629887 7.514709 5.874999 0 .042181.001135.083032 0 .125001h-2.464338c.00166-.041325 0-.083358 0-.125001-.000001-2.140392-2.207289-3.874998-4.9591-3.874998-2.751809.000001-4.9895235 1.734606-4.9895235 3.874998 0 .041643-.0016806.083676 0 .125001H6.1882243z"/>
  <path fill="#eeeeec" stroke="#2e3436" stroke-linecap="round" stroke-width=".99999878" d="M24.00000027 28.5000001a3.00000003 3.00000003 0 1 1-5.99999981 0 3.00000003 3.00000003 0 1 1 5.99999981 0z"/>
  <path fill="#3465a4" d="M21.00000001 27.4999995c-.5572514 0-1.00000007.44457063-1.00000007 1.00411528 0 .55964922.44031211.9958851 1.00000007.99588483.55968817 0 1.00000007-.43623561 1.00000007-.99588483 0-.55954465-.44274862-1.00411554-1.00000007-1.00411528z"/>
  <path fill="#d3d7cf" stroke="#555753" stroke-linecap="round" stroke-width=".99999994" d="M19.599607 7.5738958c-.000816.0364189 0 .0718673 0 .1084701 0 2.8159821 2.426207 5.0980961 5.426796 5.0980961 3.00059 0 5.448858-2.282114 5.448856-5.0980961 0-.0366028.000824-.0720512 0-.1084701h-1.786871c.001203.03586 0 .0723352 0 .1084701 0 1.8573501-1.600489 3.3625741-3.595804 3.3625741-1.995317-.000001-3.617865-1.505224-3.617865-3.3625741 0-.0361349-.001218-.0726101 0-.1084701h-1.875112z"/>
  <path fill="#d3d7cf" stroke="#555753" stroke-linecap="round" d="M17.502726 2.801917c-.000825.0364189 0 .0718673 0 .1084701 0 2.8159821 2.453256 5.0980959 5.487299 5.0980959 3.034042 0 5.509606-2.2821138 5.509604-5.0980959 0-.0366028.000832-.0720512 0-.1084701h-1.806793c.001216.03586 0 .0723352 0 .1084701-.000001 1.8573499-1.618333 3.3625737-3.635893 3.3625737-2.017562-7e-7-3.658199-1.5052238-3.658199-3.3625737 0-.0361349-.001234-.0726101 0-.1084701h-1.896018z"/>
  <path fill="url(#s)" fill-rule="evenodd" stroke="url(#t)" d="M1.6882073 9.5000157C1.661831 9.4853451 2.7243627 20.054009 2.7246654 20.057213c.0996776 1.05546.9364287 1.441214 1.8729943 1.442786.0334669.000054 17.5704343-.001359 17.9440603-.002459 1.577219-.004642 1.963621-.676378 2.067375-1.410322.008321-.01447 1.070309-10.5727307 1.078629-10.5872023H1.6882073z"/>
  <path fill="url(#u)" fill-rule="evenodd" stroke="#204a87" stroke-width=".99999994" d="M3.7720481 1.5442008c-.6163438.0015668-1.132175.0174279-1.4131444.6703913C2.3100689 2.3280829.82150492 6.9341926.74993917 7.1098508.13726643 8.6136416.70227595 10.507944 1.8856359 10.495261c.2250459-.002333 23.3182931.011746 23.6763941 0 1.007338-.03246 1.136245-2.2260418.702592-3.2128329-.024567-.055904-2.037195-5.1306076-2.088527-5.2204924-.237415-.4014271-.769086-.577357-1.164017-.5608795-.077799.0033268-19.1630328.0429497-19.2400299.0431446z"/>
  <path fill="url(#v)" fill-rule="evenodd" d="M3.8115633 3c-.0457869.0040824-.0907975.0219835-.1249355.03125-.0081281.0022063-.0235682-.0026848-.0312338 0-.054724.0235202-.0853967.0696596-.1249354.125-.0450302.0630265-.0893442.1505725-.1249354.28125-.0221777.0814273-.5794039 2.0136615-.9682495 3.40625-.0554256.2062486-.0802106.3652351-.1249354.53125-.0747.2674302-.2408706.8430328-.2498708.875-.0003752.0013829.0002888.0301878 0 .03125-.0350927.1331336-.0671732.2525555-.0624677.34375.0003109.0080877-.0006185.023472 0 .03125.0094977.0824313.0478573.1372027.0937015.1875.0376987.0413606.0939429.0707892.1561693.09375.0238314.0087935.0350434.0248505.0624677.03125.0101295.0026269.0205891-.0022799.0312338 0 .0943915.0189357.2098314.0340323.3435724.03125.007697-.000159.622133-.00002.9994833 0 .1204479.0000083.2756732.0000464.3123386 0C6.228218 8.9971773 20.199909 8.9995841 22.989149 9c.041288.0000062.17891-.0000012.281105 0 .374715.0000045.979672-.0000063 1.030717 0 .494006-.0193157.819446.0096869.655911-.65625-.035376-.1271492-.637772-2.2692983-1.030717-3.65625-.14124-.4963601-.369886-1.2986548-.374806-1.3125-.064663-.1819241-.125626-.2645633-.187404-.3125-.061777-.0479367-.124367-.0611708-.218636-.0625-.007223-.0008279-.023369.0006267-.031234 0-.047188-.0037603-.109641.001145-.187403 0H3.8115633z" display="block" style="marker:none"/>
  <path fill="#2e3436" fill-rule="evenodd" d="M3.8262041 3c-.2268711.0202175-.3359925.0986848-.4309515.4471581-.0313076.1148899-1.291295 4.6314256-1.3407389 4.8069502-.1681486.5969199.0549145.7573964.6384476.745263.0101073-.0002085 1.1948899.0001728 1.3070387 0L3.8262041 3z" display="block" style="marker:none"/>
  <path fill="url(#w)" fill-rule="evenodd" d="M23.13759 3c.213053.0027084.275617-.0036428.411819.3793553.018626.052377 1.358604 4.7764798 1.406716 4.9493161.16362.665937-.148003.6520129-.642264.6713286-.093897-.000206-1.204734.0001715-1.313861 0l.13759-6z" display="block" style="marker:none"/>
  <path fill="none" stroke="url(#x)" stroke-opacity=".2857143" stroke-width=".99999976" d="M2.8137558 11.421876c-.0303337-.000047.4596864 4.510892.7990824 7.885624.0837534.828933.1277488 1.162412.976059 1.162412 6.9931708 0 16.9317118.030827 17.2701308.030075 1.637211-.003637 1.648693-.365312 1.742163-1.152978.159846-1.347013.702534-7.803958.694353-7.803958-5.859435 0-14.242261-.109727-21.4817882-.121175z" opacity=".8"/>
  <path fill="url(#y)" fill-rule="evenodd" stroke="#204a87" d="M27.094829 1.5099415c-.349385-.0126189-.709846-.0121265-.55993.5264404.134801.4842769 1.489777 4.1399206 1.555252 4.3003464.50725 1.2428235.949919 2.9746462 1.467937 3.0790656.664021.1338504.833607.0655987 1.176163.0750201 1.404975.0386421.532088-1.9272169.084582-2.8089049-.025352-.0499499-2.203317-4.5792058-2.250791-4.6597877-.216659-.360056-.554242-.5275719-.774959-.5219864-.043462.0011715-.654606.011383-.698254.0098065z"/>
  <path fill="#fff" d="M3 11h1.0000001v.99999982H3zm2 0h1.0000001v.99999982H5zm2 0h1.0000001v.99999982H7zm2 0h1.0000001v.99999982H9zm2 0h1.0000001v.99999982H11z" opacity=".25"/>
  <path fill="#fff" d="M13 11h1.0000001v.99999982H13z" opacity=".2"/>
  <path fill="#fff" d="M17.000002 11h1.0000001v.99999982H17.000002z" opacity=".18500001"/>
  <path fill="#fff" d="M15.000001 11h1.0000001v.99999982H15.000001z" opacity=".2"/>
  <path fill="#fff" d="M15.000001 13h1.0000001v.99999982H15.000001z" opacity=".18500001"/>
  <path fill="#fff" d="M13 13h1.0000001v.99999982H13zm-2 0h1.0000001v.99999982H11z" opacity=".2"/>
  <path fill="#fff" d="M9 13h1.0000001v.99999982H9zm-2 0h1.0000001v.99999982H7zm-2 0h1.0000001v.99999982H5zm-2 0h1.0000001v.99999982H3zm0 2h1.0000001v.99999982H3zm2 0h1.0000001v.99999982H5zm2 0h1.0000001v.99999982H7z" opacity=".25"/>
  <path fill="#fff" d="M9 15h1.0000001v.99999982H9zm2 0h1.0000001v.99999982H11z" opacity=".2"/>
  <path fill="#fff" d="M13 15h1.0000001v.99999982H13z" opacity=".18500001"/>
  <path fill="#fff" d="M15.000001 15h1.0000001v.99999982H15.000001z" opacity=".15"/>
  <path fill="#fff" d="M17.000002 15h1.0000001v.99999982H17.000002z" opacity=".125"/>
  <path fill="#fff" d="M19.000002 15h1.0000001v.99999982H19.000002z" opacity=".1"/>
  <path fill="#fff" d="M21 15h1.0000001v.99999982H21z" opacity=".075"/>
  <path fill="#fff" d="M22.999998 15h1.0000001v.99999982H22.999998zm0-2h1.0000001v.99999982H22.999998z" opacity=".05"/>
  <path fill="#fff" d="M21 13h1.0000001v.99999982H21z" opacity=".075"/>
  <path fill="#fff" d="M19.000002 13h1.0000001v.99999982H19.000002z" opacity=".1"/>
  <path fill="#fff" d="M17.000002 13h1.0000001v.99999982H17.000002z" opacity=".15"/>
  <path fill="#fff" d="M19.000002 11h1.0000001v.99999982H19.000002z" opacity=".1"/>
  <path fill="#fff" d="M21 11h1.0000001v.99999982H21z" opacity=".075"/>
  <path fill="#fff" d="M22.999998 11h1.0000001v.99999982H22.999998zm0 5.999996h1.0000001v.99999982H22.999998z" opacity=".05"/>
  <path fill="#fff" d="M21 16.999996h1.0000001v.99999982H21z" opacity=".075"/>
  <path fill="#fff" d="M19.000002 16.999996h1.0000001v.99999982H19.000002z" opacity=".1"/>
  <path fill="#fff" d="M17.000002 16.999996h1.0000001v.99999982H17.000002z" opacity=".125"/>
  <path fill="#fff" d="M15.000001 16.999996h1.0000001v.99999982H15.000001zm-2.000001 0h1.0000001v.99999982H13z" opacity=".15"/>
  <path fill="#fff" d="M11 16.999996h1.0000001v.99999982H11z" opacity=".18500001"/>
  <path fill="#fff" d="M9 16.999996h1.0000001v.99999982H9z" opacity=".2"/>
  <path fill="#fff" d="M3 16.999996h1.0000001v.99999982H3zm2 0h1.0000001v.99999982H5z" opacity=".25"/>
  <path fill="#fff" d="M7 16.999996h1.0000001v.99999982H7z" opacity=".2"/>
  <path fill="#fff" d="M22.999998 19h1.0000001v.99999982H22.999998z" opacity=".05"/>
  <path fill="#fff" d="M21 19h1.0000001v.99999982H21z" opacity=".075"/>
  <path fill="#fff" d="M19.000002 19h1.0000001v.99999982H19.000002z" opacity=".1"/>
  <path fill="#fff" d="M17.000002 19h1.0000001v.99999982H17.000002zm-2.000001 0h1.0000001v.99999982H15.000001zM13 19h1.0000001v.99999982H13zm-2 0h1.0000001v.99999982H11z" opacity=".125"/>
  <path fill="#fff" d="M9 19h1.0000001v.99999982H9z" opacity=".18500001"/>
  <path fill="#fff" d="M3 19h1.0000001v.99999982H3zm2 0h1.0000001v.99999982H5zm2 0h1.0000001v.99999982H7z" opacity=".2"/>
  <path fill="#fff" fill-rule="evenodd" d="M24.687724 13.819969c-3.365798.839594-7.976559 1.679319-11.735868 1.697145-4.133471.019602-6.9138622 1.114597-9.9989668 1.971928.1230417 1.035899.2587475 1.759166.4263401 2.919276.0835969.578676.1380225.587027 1.5932395.587027C10.731184 20.995345 18.286457 21 22.832126 21c1.112715 0 .985699-.450197 1.045809-.881326.290985-2.087056.552551-4.203884.809789-6.298705z" opacity=".15"/>
  <path fill="url(#z)" d="M25 11.018531 4 11c15.821716.504606 18.776299 3.117677 20.704848 2.995876L25 11.018531z" display="block" style="marker:none"/>
  <path fill="#eeeeec" stroke="#2e3436" stroke-linecap="round" stroke-width=".99999878" d="M9.49999977 28.5000001a3.00000003 3.00000003 0 1 1-5.99999981 0 3.00000003 3.00000003 0 1 1 5.99999981 0z"/>
  <path fill="#3465a4" d="M6.50000001 27.4999995c-.5572514 0-1.00000007.44457063-1.00000007 1.00411528 0 .55964922.44031211.9958851 1.00000007.99588483.55968817 0 1.00000007-.43623561 1.00000007-.99588483 0-.55954465-.44274862-1.00411554-1.00000007-1.00411528z"/>
  <g clip-path="url(#A)" transform="rotate(30 -62.19065687 -3.98669924)">
    <rect width="22" height="17" x="1.4999993" y="-36.5" fill="url(#B)" stroke="#888a85" stroke-linecap="round" stroke-linejoin="round" stroke-width=".99999982" rx="2.5032778" ry="2.2397749"/>
    <rect width="19.998993" height="14.998991" x="2.5005028" y="-35.499496" fill="none" stroke="#fff" stroke-linecap="round" stroke-width="1.00100875" rx="1.5068421" ry="1.3295559"/>
    <rect width="16.000002" height="11" x="4.4999995" y="-33.454666" fill="url(#C)" stroke="#2e3436" stroke-linecap="round" rx=".50001937" ry=".50001937"/>
    <path fill="url(#D)" fill-rule="evenodd" d="M9.520961-27.88037c-2.57767.153441-4.62856 2.178032-4.62856 4.634855 0 .094878.00958.184329.015584.277799h9.849327c.006006-.09347.015585-.182921.015585-.277799 0-2.556695-2.215092-4.634855-4.940248-4.634855-.106452 0-.206904-.006237-.311688 0z" overflow="visible" style="marker:none"/>
    <rect width="15" height="1" x="4.9999995" y="-23.954662" fill="url(#E)" rx="0" ry="0"/>
    <path fill-rule="evenodd" d="M15.435715-22.954664s-.267976-1.370604-.267976-2.21026c.007433-.383039 3.755781-3.367042 3.765452-3.811522l-.871458.699903-.61023-1.530002 2.057228.196452.964664-.889036-1.092561.739194-.375752-.07858-.461016-1.549648.234478 1.510357-1.702792-.07858.532906 1.249965-1.476254-1.34819 1.561521 1.876512c.00004.418526-3.077703 2.973465-3.072468 2.532918L13.34499-27.22303l-.106581-2.133055.964665-.254008.845122-1.920591-1.114053 1.775096-.869727-.036319-1.946881-1.515361-2.673191-.942964 2.283764 1.156746-1.83069.14984h2.411661l1.446998 1.333553.17053 2.303477-2.582192-2.303477 1.085875 1.203353-1.568207 1.019231 1.722616-.889034 2.724956 3.163235-.106581 2.158644h1.232641z"/>
    <path fill="#fef39e" fill-rule="evenodd" d="M10.747633 18.010982c-2.0870769.093067-3.7476333 1.321061-3.7476333 2.811221 0 .057548.0077571.111805.0126187.168497H14.98738c.004864-.056692.01262-.110949.01262-.168497 0-1.550736-1.793505-2.811221-4-2.811221-.086191 0-.167524-.003784-.252367 0z" overflow="visible" style="marker:none" transform="matrix(.75 0 0 1.00624 .75 -45.076321)"/>
    <path fill="#fffbd7" fill-opacity=".55681817" fill-rule="evenodd" d="M8.860913-26.04395c-1.102653.071661-1.996315.971514-2.109491 2.089286h4.497156C11.132534-25.122376 10.170272-26.04395 9-26.04395c-.048761 0-.091087-.00312-.139087 0z" overflow="visible" style="marker:none"/>
  </g>
</svg>